<?xml version="1.0" standalone="no"?><!DOCTYPE svg PUBLIC "-//W3C//DTD SVG 1.1//EN" "http://www.w3.org/Graphics/SVG/1.1/DTD/svg11.dtd"><svg t="1652952851568" class="icon" viewBox="0 0 1024 1024" version="1.1" xmlns="http://www.w3.org/2000/svg" p-id="3444" width="200" height="200" xmlns:xlink="http://www.w3.org/1999/xlink"><defs><style type="text/css">@font-face { font-family: feedback-iconfont; src: url("//at.alicdn.com/t/font_1031158_u69w8yhxdu.woff2?t=1630033759944") format("woff2"), url("//at.alicdn.com/t/font_1031158_u69w8yhxdu.woff?t=1630033759944") format("woff"), url("//at.alicdn.com/t/font_1031158_u69w8yhxdu.ttf?t=1630033759944") format("truetype"); }
</style></defs><path d="M256.343 589.739v-0.372l510.77 0.211c77.898 0 141.266-63.376 141.266-141.271 0-72.642-55.829-133.363-126.542-141.216 0.16-4.79 0.24-9.182 0.24-12.619 0-57.664-22.454-111.869-63.222-152.639-40.778-40.77-94.975-63.221-152.638-63.221-44.685 0-88.624 15.205-127.078 43.974-26.251 19.638-48.311 44.674-64.197 72.47-17.436-9.066-36.745-13.803-56.753-13.803-32.039 0-62.837 14.86-86.721 41.842-15.921 17.989-27.274 39.909-32.788 62.675-27.045 10.693-51.107 29.021-68.585 52.435-20.409 27.345-31.198 59.877-31.198 94.092-0.001 86.818 70.627 157.444 157.442 157.444v0zM235.449 314.487c0.163-0.057 0.304-0.124 0.436-0.201 4.734-1.342 8.459-5.281 9.296-10.355 6.765-40.828 42.255-82.166 85.062-82.166 17.555 0 34.325 5.306 48.604 15.34 1.422 1.317 3.121 2.384 5.062 3.103h0.004c7.474 2.763 15.802-0.687 19.163-7.915 29.011-62.445 93.81-106.503 159.077-106.503 94.425 0 171.244 76.819 171.244 171.244 0 6.448-0.334 16.48-0.931 25.258-0.535 7.866 4.972 14.844 12.75 16.144 1.355 0.222 2.708 0.262 4.013 0.133v0.044c55.967 0 102.267 46.301 102.267 102.271 0 54.201-42.713 98.622-96.243 101.366v-0.067h-491.898c-60.091-4.643-107.557-55.020-107.557-116.276 0-50.554 31.918-95.493 79.66-111.419v0zM235.449 314.487z" p-id="3445" fill="#2c2c2c"></path><path d="M982.665 845.338v-154.834l-70.518 0.095-857.681 0.036 0.106 203.886 928.13-0.397-0.038-48.781zM937.499 847.215h-835.518v-108.608h835.521v108.608h-0.001zM937.499 847.215z" p-id="3446" fill="#2c2c2c"></path><path d="M185.7 771.697h44.249v42.774h-44.249v-42.774zM185.7 771.697z" p-id="3447" fill="#2c2c2c"></path><path d="M275.242 770.907h593.744v42.773h-593.744v-42.773zM275.242 770.907z" p-id="3448" fill="#2c2c2c"></path></svg>