<?xml version="1.0" standalone="no"?><!DOCTYPE svg PUBLIC "-//W3C//DTD SVG 1.1//EN" "http://www.w3.org/Graphics/SVG/1.1/DTD/svg11.dtd"><svg t="1652934988170" class="icon" viewBox="0 0 1024 1024" version="1.1" xmlns="http://www.w3.org/2000/svg" p-id="6547" xmlns:xlink="http://www.w3.org/1999/xlink" width="200" height="200"><defs><style type="text/css">@font-face { font-family: feedback-iconfont; src: url("//at.alicdn.com/t/font_1031158_u69w8yhxdu.woff2?t=1630033759944") format("woff2"), url("//at.alicdn.com/t/font_1031158_u69w8yhxdu.woff?t=1630033759944") format("woff"), url("//at.alicdn.com/t/font_1031158_u69w8yhxdu.ttf?t=1630033759944") format("truetype"); }
</style></defs><path d="M299.406091 906.000516c-11.270694-6.021134-15.438621-20.070104-9.417487-31.340799s20.070104-15.438621 31.340799-9.417487c28.870538 15.59314 59.748802 27.789926 92.170213 35.972283 31.495318 7.874341 64.380286 12.042267 98.500385 12.042267 110.850667 0 211.20426-44.927235 283.766902-117.489878s117.489878-172.915211 117.489878-283.766902-44.927235-211.20426-117.489878-283.766902S622.850667 110.74322 512 110.74322s-211.20426 44.927235-283.766902 117.489878S110.74322 401.148309 110.74322 512c0 48.787146 8.645914 95.412047 24.548092 138.487098 16.519232 44.927235 40.603767 85.99456 70.864978 121.504308 8.336876 9.726525 7.101745 24.393573-2.62478 32.57593-9.726525 8.336876-24.239054 7.101745-32.42141-2.62478-33.965579-39.832194-61.138452-85.685521-79.355349-135.553279-17.754363-48.169069-27.480888-100.19805-27.480888-154.389276 0-123.665531 50.176796-235.597833 131.076314-316.65187 81.054037-80.899518 192.986339-131.076314 316.65187-131.076314s235.597833 50.176796 316.65187 131.076314c80.899518 81.054037 131.076314 192.986339 131.076314 316.65187s-50.176796 235.597833-131.076314 316.65187c-81.054037 80.899518-192.986339 131.076314-316.65187 131.076314-37.82549 0-74.569346-4.786003-109.770056-13.586436C365.9476 937.032276 331.519486 923.44584 299.406091 906.000516z" p-id="6548"></path><path d="M670.168346 526.589276l-0.463558 0.463558L525.19758 675.266457c-3.705392 3.859911-8.645914 5.866614-14.048971 5.866614-5.40408 0-10.343579-2.006703-14.048971-5.866614L352.591407 527.052834l-0.154519-0.154519c-19.60757-19.762089-30.414707-46.471404-30.569226-75.032904-0.154519-29.179576 10.807137-56.505945 30.723745-77.039607 19.916609-20.533662 46.316885-31.958876 74.41585-31.958876 26.400277 0 51.874461 10.190083 71.63655 28.408003l12.81384 12.042267 13.122879-11.733229c19.762089-18.063401 45.236274-27.944446 71.63655-27.944446 28.253484 0 54.80828 11.116175 74.723865 31.340799 20.379143 20.533662 31.495318 47.861054 31.18628 76.886111C701.818183 480.273415 690.548512 506.82821 670.168346 526.589276zM730.688721 395.822001c-7.410783-18.681478-18.372439-35.355229-32.42141-49.713238-27.326369-27.480888-63.454194-42.766013-102.051257-42.766013-30.260188 0-59.748802 9.726525-84.450391 27.326369-24.702612-18.21792-54.190203-28.098965-84.759429-28.098965-38.597063 0-74.723865 15.59314-102.051257 43.692105-13.740956 14.358009-24.548092 30.877241-31.804357 49.558719-6.947226 17.908882-10.343579 36.899398-10.343579 56.19793 0.154519 19.144012 3.705392 37.82549 10.807137 55.270814 7.101745 18.21792 17.754363 34.429137 31.340799 48.323589l144.662751 148.213623c10.961656 11.425214 25.783223 17.599843 41.530882 17.599843 15.902178 0 30.569226-6.175653 41.685401-17.599843l144.353712-148.059104c14.048971-13.740956 25.010627-29.951149 32.57593-48.01455 7.410783-17.599843 11.270694-36.281321 11.425214-55.425334C741.342362 432.875918 737.791489 413.885402 730.688721 395.822001z" p-id="6549"></path><path d="M426.542676 376.214431c-17.908882 0-34.737152 7.410783-47.706535 20.533662-12.81384 13.277398-19.916609 30.723745-19.916609 49.249681 0 7.719822 5.712095 13.740956 13.431917 13.740956 7.565303 0 13.277398-6.021134 13.277398-13.740956 0-10.961656 4.168949-21.151739 11.733229-29.025057 7.565303-7.873318 17.446347-12.196787 27.944446-12.196787 7.101745 0 12.505825-5.095042 13.277398-12.042267 1.235131-3.550873 0.926092-7.410783-0.926092-10.498098C435.497629 378.531196 431.329702 376.214431 426.542676 376.214431z" p-id="6550"></path></svg>